# Blender v2.76 (sub 0) OBJ File: ''
# www.blender.org
mtllib frigate_v1_turret_002.mtl
o protoTurret_001_low
v 8.906153 2.783575 5.917953
v 9.918969 -0.000003 7.004561
v 8.906153 2.783575 3.090789
v -2.702978 2.783576 10.784227
v 0.000000 -0.000004 11.957982
v 2.702979 2.783576 10.784227
v 2.702979 2.783577 3.090798
v 2.702979 8.065319 -2.646566
v 2.702979 3.790451 -2.646566
v 7.893336 3.790451 -8.129912
v 6.833764 8.065319 -5.772481
v 7.893336 3.790451 -3.552443
v 4.144707 2.783576 10.784227
v 4.144707 2.783575 3.090789
v 4.144707 8.065318 5.917955
v -2.702978 8.065319 -2.646566
v -2.702978 3.790451 -2.646566
v 2.702979 8.065318 5.917955
v 7.893336 3.790451 -2.646566
v 8.906153 2.783576 -9.216522
v 4.144707 8.065319 -5.772480
v 7.128332 6.837094 -7.565073
v 9.918969 -0.000003 -10.303128
v -2.702978 8.065319 -5.772481
v 2.702979 8.065319 -5.772481
v 0.000000 6.837099 -7.565067
v 4.144708 3.790451 -2.646566
v 4.144708 3.790451 -3.552443
v 6.675048 2.783576 10.784227
v 7.687864 -0.000004 11.957982
v 7.312222 2.783576 -10.871376
v 6.299405 3.790452 -9.784765
v 5.883205 5.721536 -9.304319
v 1.832590 8.819863 -2.646564
v -1.832589 8.819863 -4.408741
v -1.832589 8.819863 -2.646564
v 1.832590 8.819863 -4.408741
v -2.702978 2.783577 3.090798
v -5.883204 5.721536 -9.304319
v -6.299405 3.790452 -9.784765
v -8.906153 2.783575 5.917953
v -8.906153 2.783575 3.090789
v -9.918969 -0.000003 7.004561
v -8.325038 -0.000002 -11.957982
v -7.312222 2.783576 -10.871376
v -6.833763 8.065319 -5.772481
v -7.893336 3.790451 -8.129912
v -7.893336 3.790451 -3.552443
v -4.144706 2.783576 10.784227
v -4.144707 8.065318 5.917955
v -4.144706 2.783575 3.090789
v -2.702978 8.065318 5.917955
v -7.893336 3.790451 -2.646566
v -8.906153 2.783576 -9.216522
v -4.144707 8.065319 -5.772480
v -7.128331 6.837094 -7.565073
v -9.918969 -0.000003 -10.303128
v -4.144708 3.790451 -2.646566
v -4.144708 3.790451 -3.552443
v -6.675047 2.783576 10.784227
v -7.687863 -0.000004 11.957982
v 8.325038 -0.000002 -11.957982
vt 0.153806 0.689402
vt 0.127913 0.618817
vt 0.221174 0.689402
vt 0.118166 0.071724
vt 0.182083 0.000287
vt 0.246001 0.071723
vt 0.182215 0.965746
vt 0.317887 0.840848
vt 0.317887 0.941936
vt 0.490927 0.722017
vt 0.427999 0.822430
vt 0.381909 0.722892
vt 0.568640 0.114000
vt 0.747986 0.113040
vt 0.686918 0.237927
vt 0.280094 0.071724
vt 0.445723 0.840848
vt 0.445723 0.941936
vt 0.246001 0.241551
vt 0.359885 0.723235
vt 0.513313 0.687367
vt 0.280094 0.517997
vt 0.343683 0.517997
vt 0.350648 0.569382
vt 0.540339 0.618818
vt 0.118166 0.517997
vt 0.246001 0.517997
vt 0.182083 0.569382
vt 0.246001 0.444078
vt 0.885687 0.126607
vt 0.907723 0.126834
vt 0.962444 0.226589
vt 0.028108 0.711153
vt 0.363880 0.000287
vt 0.339929 0.071723
vt 0.561636 0.707462
vt 0.542166 0.745349
vt 0.523846 0.787644
vt 0.321205 0.618243
vt 0.888314 0.604551
vt 0.750568 0.476716
vt 0.888314 0.476716
vt 0.684856 0.000287
vt 0.568640 0.053570
vt 0.752771 0.002238
vt 0.881451 0.823005
vt 0.795283 0.864220
vt 0.792445 0.823005
vt 0.425140 0.823005
vt 0.910494 0.825640
vt 0.878748 0.865394
vt 0.772852 0.900885
vt 0.901541 0.901538
vt 0.280094 0.241551
vt 0.115361 0.840848
vt 0.000287 0.965746
vt 0.750568 0.604551
vt 0.568640 0.476716
vt 0.890626 0.035548
vt 0.911962 0.036633
vt 0.911069 0.823005
vt 0.974657 0.936912
vt 0.911069 0.936912
vt 0.649167 0.618818
vt 0.937251 0.665874
vt 0.639325 0.665874
vt 0.435039 0.153806
vt 0.435039 0.221175
vt 0.364454 0.127913
vt 0.961201 0.700905
vt 0.591425 0.771566
vt 0.615375 0.700905
vt 0.581395 0.965746
vt 0.568066 0.428001
vt 0.467653 0.490929
vt 0.468529 0.381911
vt 0.568640 0.362429
vt 0.686918 0.238501
vt 0.747986 0.363388
vt 0.084073 0.071724
vt 0.118166 0.241551
vt 0.468871 0.359886
vt 0.433003 0.513315
vt 0.084073 0.517997
vt 0.013519 0.569382
vt 0.020484 0.517997
vt 0.364454 0.540340
vt 0.118166 0.444078
vt 0.885687 0.349821
vt 0.962444 0.249840
vt 0.907723 0.349595
vt 0.456790 0.028108
vt 0.386146 0.000287
vt 0.024237 0.071724
vt 0.000287 0.000287
vt 0.453098 0.561637
vt 0.490984 0.542168
vt 0.533279 0.523847
vt 0.042962 0.618243
vt 0.684856 0.476142
vt 0.568640 0.422858
vt 0.752771 0.474190
vt 0.763897 0.825565
vt 0.084073 0.241551
vt 0.648249 0.840847
vt 0.763323 0.965746
vt 0.890626 0.440881
vt 0.911962 0.439795
vt 0.888888 0.593346
vt 0.975462 0.495759
vt 0.950992 0.607007
vt 0.470382 0.796701
vt 0.000287 0.640510
vt 0.590850 0.638818
vt 0.338469 0.823005
vt 0.568640 0.604551
vt 0.999713 0.823005
vt 0.927409 0.618817
vt 0.985152 0.771566
vt 0.542336 0.470384
vt 0.384454 0.590852
vt 0.888888 0.476716
vn 0.939700 0.341900 0.000000
vn -0.000000 0.388500 0.921400
vn -1.000000 0.000000 0.000000
vn 0.970600 0.240600 0.000000
vn 1.000000 0.000000 0.000000
vn 0.000000 0.000000 1.000000
vn 0.000000 0.677600 0.735400
vn 0.705000 0.709200 0.000000
vn 0.000000 0.824900 -0.565200
vn 0.000000 1.000000 0.000000
vn 0.815200 0.442500 0.373700
vn 0.635600 0.470300 -0.612200
vn 0.404500 0.827400 -0.389600
vn 0.684400 0.311500 -0.659200
vn -0.000000 0.841700 -0.539900
vn 0.000000 0.984900 0.172900
vn 0.655000 0.755600 0.000000
vn 0.000000 0.875000 -0.484100
vn 0.000000 0.460900 0.887500
vn 0.000000 0.241400 -0.970400
vn -0.939700 0.341900 0.000000
vn 0.000000 0.363600 -0.931500
vn 0.000000 0.733500 -0.679700
vn -0.970600 0.240600 0.000000
vn -0.705000 0.709200 0.000000
vn -0.813900 0.450700 0.366600
vn -0.635600 0.470300 -0.612200
vn -0.404500 0.827400 -0.389600
vn -0.684400 0.311500 -0.659200
vn -0.655000 0.755600 0.000000
vn 0.969500 0.245000 -0.008600
vn 0.813900 0.450700 0.366600
vn 0.677200 0.295000 -0.674000
vn -0.969500 0.245000 -0.008600
vn -0.815200 0.442500 0.373700
vn -0.677200 0.295000 -0.674000
usemtl Material.001
s 1
f 1/1/1 2/2/1 3/3/1
f 4/4/2 5/5/2 6/6/2
f 7/7/3 8/8/3 9/9/3
f 10/10/4 11/11/4 12/12/4
f 13/13/5 14/14/5 15/15/5
f 5/5/2 13/16/2 6/6/2
f 9/9/6 16/17/6 17/18/6
f 13/16/7 18/19/7 6/6/7
f 19/20/8 20/21/8 12/12/8
f 21/22/9 11/23/9 22/24/9
f 3/3/1 23/25/1 20/21/1
f 24/26/9 25/27/9 26/28/9
f 21/22/9 26/28/9 25/27/9
f 8/29/10 21/22/10 25/27/10
f 12/12/8 20/21/8 10/10/8
f 27/30/5 28/31/5 21/32/5
f 29/33/11 2/2/11 1/1/11
f 13/16/2 30/34/2 29/35/2
f 23/25/12 31/36/12 20/21/12
f 20/21/13 32/37/13 10/10/13
f 33/38/14 10/10/14 32/37/14
f 26/28/15 22/24/15 33/39/15
f 17/40/16 7/41/16 9/42/16
f 1/43/10 13/13/10 29/44/10
f 14/14/10 1/43/10 3/45/10
f 34/46/10 35/47/10 36/48/10
f 8/8/6 36/49/6 16/17/6
f 8/50/17 37/51/17 34/46/17
f 24/52/18 37/51/18 25/53/18
f 15/54/10 8/29/10 18/19/10
f 15/15/5 27/30/5 21/32/5
f 18/55/3 7/7/3 6/56/3
f 38/57/10 6/58/10 7/41/10
f 19/59/16 14/14/16 3/45/16
f 12/60/10 27/30/10 19/59/10
f 28/61/19 11/62/19 21/63/19
f 39/64/20 32/65/20 40/66/20
f 41/67/21 42/68/21 43/69/21
f 31/70/22 44/71/22 45/72/22
f 16/17/5 38/73/5 17/18/5
f 32/65/23 45/72/23 40/66/23
f 46/74/24 47/75/24 48/76/24
f 49/77/3 50/78/3 51/79/3
f 49/80/2 5/5/2 4/4/2
f 52/81/7 49/80/7 4/4/7
f 53/82/25 54/83/25 42/68/25
f 55/84/9 56/85/9 46/86/9
f 42/68/21 57/87/21 43/69/21
f 26/28/9 55/84/9 24/26/9
f 16/88/10 24/26/10 55/84/10
f 48/76/25 47/75/25 54/83/25
f 58/89/3 55/90/3 59/91/3
f 60/92/26 43/69/26 61/93/26
f 49/80/2 60/94/2 61/95/2
f 45/96/27 57/87/27 54/83/27
f 40/97/28 54/83/28 47/75/28
f 47/75/29 39/98/29 40/97/29
f 26/28/15 39/99/15 56/85/15
f 41/100/10 60/101/10 49/77/10
f 41/100/10 51/79/10 42/102/10
f 16/103/30 35/47/30 24/52/30
f 16/88/10 50/104/10 52/81/10
f 50/78/3 58/89/3 51/79/3
f 52/105/5 4/106/5 38/73/5
f 51/79/16 53/107/16 42/102/16
f 58/89/10 48/108/10 53/107/10
f 46/109/19 59/110/19 55/111/19
f 7/7/3 18/55/3 8/8/3
f 10/10/31 22/112/31 11/11/31
f 5/5/2 30/34/2 13/16/2
f 9/9/6 8/8/6 16/17/6
f 13/16/7 15/54/7 18/19/7
f 19/20/8 3/3/8 20/21/8
f 3/3/1 2/2/1 23/25/1
f 21/22/9 22/24/9 26/28/9
f 29/33/32 30/113/32 2/2/32
f 23/25/12 62/114/12 31/36/12
f 20/21/13 31/36/13 32/37/13
f 33/38/33 22/112/33 10/10/33
f 17/40/16 38/57/16 7/41/16
f 14/14/10 13/13/10 1/43/10
f 34/46/10 37/51/10 35/47/10
f 8/8/6 34/115/6 36/49/6
f 8/50/17 25/53/17 37/51/17
f 24/52/18 35/47/18 37/51/18
f 15/54/10 21/22/10 8/29/10
f 15/15/5 14/14/5 27/30/5
f 38/57/10 4/116/10 6/58/10
f 19/59/16 27/30/16 14/14/16
f 12/60/10 28/31/10 27/30/10
f 28/61/19 12/117/19 11/62/19
f 39/64/20 33/118/20 32/65/20
f 31/70/22 62/119/22 44/71/22
f 16/17/5 52/105/5 38/73/5
f 32/65/23 31/70/23 45/72/23
f 46/74/34 56/120/34 47/75/34
f 49/80/2 61/95/2 5/5/2
f 52/81/7 50/104/7 49/80/7
f 53/82/25 48/76/25 54/83/25
f 42/68/21 54/83/21 57/87/21
f 26/28/9 56/85/9 55/84/9
f 60/92/35 41/67/35 43/69/35
f 45/96/27 44/121/27 57/87/27
f 40/97/28 45/96/28 54/83/28
f 47/75/36 56/120/36 39/98/36
f 26/28/15 33/39/15 39/99/15
f 41/100/10 49/77/10 51/79/10
f 16/103/30 36/48/30 35/47/30
f 16/88/10 55/84/10 50/104/10
f 50/78/3 55/90/3 58/89/3
f 51/79/16 58/89/16 53/107/16
f 58/89/10 59/91/10 48/108/10
f 46/109/19 48/122/19 59/110/19
