# Blender v2.77 (sub 0) OBJ File: 'frigate_v1_0004_0000_turret_001.blend'
# www.blender.org
mtllib frigate_v1_0004_0000_turret_001_low.mtl
o FrigateTurretLowPower_low
v 5.678177 0.000002 -3.258035
v 5.678177 0.000002 3.258035
v 3.506153 0.000002 7.579886
v 3.506153 0.000002 -6.516070
v 3.115348 4.241799 -2.312525
v 4.116939 3.587314 -2.641942
v 3.115348 4.241799 1.345782
v 4.116939 3.587314 1.797880
v 1.935835 4.896285 -2.249992
v 2.355644 3.587314 -5.283885
v 2.348162 3.610640 5.062518
v 1.935835 4.896285 1.214002
v -5.678177 0.000002 -3.258035
v -5.678177 0.000002 3.258035
v -3.506153 0.000002 7.579886
v -3.506153 0.000002 -6.516070
v -3.115348 4.241799 -2.312525
v -4.116939 3.587314 -2.641942
v -3.115348 4.241799 1.345782
v -4.116939 3.587314 1.797880
v -1.935835 4.896285 -2.249992
v -2.355644 3.587314 -5.283885
v -2.348162 3.610640 5.062518
v -1.935835 4.896285 1.214002
vt 0.3714 0.2720
vt 0.5589 0.2697
vt 0.5495 0.3377
vt 0.5852 0.2075
vt 0.7600 0.3060
vt 0.3782 0.3406
vt 0.2091 0.3059
vt 0.3506 0.2096
vt 0.3735 0.5987
vt 0.3802 0.5299
vt 0.5517 0.5300
vt 0.7600 0.5619
vt 0.5614 0.5982
vt 0.3528 0.6620
vt 0.2078 0.5635
vt 0.5882 0.6599
vt 0.9999 0.2429
vt 0.3221 0.8697
vt 0.0001 0.6255
vt 0.2466 0.8531
vt 0.7214 0.8380
vt 0.3162 0.0032
vt 0.6605 0.0001
vt 0.2468 0.0230
vt 0.7195 0.0262
vt 0.9498 0.1496
vt 0.9999 0.6250
vt 0.6675 0.8665
vt 0.0019 0.2420
vt 0.0678 0.7316
vt 0.9479 0.7151
vt 0.0722 0.1417
vn -0.4852 -0.8744 0.0000
vn -0.4531 -0.8587 -0.2394
vn -0.4506 -0.8407 0.3004
vn -0.5470 -0.8371 0.0000
vn 0.4852 -0.8744 0.0000
vn 0.4506 -0.8601 -0.2391
vn 0.4506 -0.8407 0.3004
vn 0.5470 -0.8371 0.0000
vn 0.0000 -0.9485 -0.3169
vn 0.0000 -0.9182 0.3962
vn 0.4531 -0.8587 -0.2394
vn 0.0000 -1.0000 0.0000
vn 0.0000 -0.5719 -0.8203
vn -0.4506 -0.8601 -0.2391
vn 0.9169 -0.3991 0.0000
vn 0.0000 -0.3249 0.9458
vn 0.7567 -0.4159 0.5044
vn 0.7634 -0.4991 -0.4100
vn -0.9169 -0.3991 0.0000
vn -0.7567 -0.4159 0.5044
vn -0.7663 -0.5143 -0.3851
vn 0.7663 -0.5143 -0.3851
vn -0.7634 -0.4991 -0.4100
usemtl TurretBase
s off
f 5/1/1 7/2/1 12/3/1
f 7/2/2 8/4/2 11/5/2
f 5/1/3 9/6/3 10/7/3
f 7/2/4 5/1/4 6/8/4
f 17/9/5 21/10/5 24/11/5
f 24/11/6 23/12/6 19/13/6
f 17/9/7 18/14/7 22/15/7
f 19/13/8 20/16/8 18/14/8
f 11/5/9 23/12/9 24/11/9
f 22/15/10 10/7/10 9/6/10
f 23/12/11 20/16/11 19/13/11
f 21/10/7 17/9/7 22/15/7
f 9/6/12 12/3/12 24/11/12
f 23/12/13 11/5/13 3/17/13
f 6/8/3 5/1/3 10/7/3
f 12/3/14 7/2/14 11/5/14
f 13/18/15 18/14/15 20/16/15
f 10/7/16 22/15/16 16/19/16
f 22/15/17 18/14/17 13/20/17
f 14/21/18 20/16/18 23/12/18
f 1/22/19 2/23/19 8/4/19
f 1/24/20 6/8/20 10/7/20
f 2/25/21 3/26/21 11/5/21
f 9/6/1 5/1/1 12/3/1
f 8/4/4 7/2/4 6/8/4
f 19/13/5 17/9/5 24/11/5
f 17/9/8 19/13/8 18/14/8
f 12/3/9 11/5/9 24/11/9
f 21/10/10 22/15/10 9/6/10
f 21/10/12 9/6/12 24/11/12
f 15/27/13 23/12/13 3/17/13
f 14/28/15 13/18/15 20/16/15
f 4/29/16 10/7/16 16/19/16
f 16/30/17 22/15/17 13/20/17
f 15/31/22 14/21/22 23/12/22
f 6/8/19 1/22/19 8/4/19
f 4/32/20 1/24/20 10/7/20
f 8/4/23 2/25/23 11/5/23
